<svg xmlns="http://www.w3.org/2000/svg" viewBox="0 0 800 350"><defs><linearGradient id="body" x1="0" y1="0" x2=".8" y2="1"><stop stop-color="#8e4547"/><stop offset=".6" stop-color="#631e27"/><stop offset="1" stop-color="#36151f"/></linearGradient></defs><ellipse cx="403" cy="301" rx="340" ry="27" fill="#475467" opacity=".15"/><path d="M76 206 156 185 197 112Q202 100 238 99H554Q581 99 595 130L618 186 708 205Q734 213 733 241V279H70V248Q66 215 76 206Z" fill="url(#body)" stroke="#431b25" stroke-width="7"/><path d="M223 129H553L580 187H190L209 138Q214 130 223 129Z" fill="#152d42" stroke="#ad8c7f" stroke-width="6"/><path d="M400 131V190M184 199H630" stroke="#bd9294" stroke-width="5"/><path d="M79 226H156M633 226H715" stroke="#dfbd79" stroke-width="13" stroke-linecap="round"/><path d="M80 257H725" stroke="#752d37" stroke-width="11"/><circle cx="213" cy="275" r="57" fill="#121c2a"/><circle cx="213" cy="275" r="31" fill="#9a9fa7"/><circle cx="213" cy="275" r="16" fill="#dce2e9"/><circle cx="610" cy="275" r="57" fill="#121c2a"/><circle cx="610" cy="275" r="31" fill="#9a9fa7"/><circle cx="610" cy="275" r="16" fill="#dce2e9"/></svg>